<svg width="556" height="202" viewBox="0 0 556 202" fill="none" xmlns="http://www.w3.org/2000/svg">
<path fill-rule="evenodd" clip-rule="evenodd" d="M75.75 126.25V126.25C75.75 106.16 67.7692 86.8925 53.5633 72.6866C39.3574 58.4808 20.0901 50.5 0 50.5L-3.40773e-06 -5.51856e-06C33.4835 -6.98217e-06 65.5957 13.3013 89.2722 36.9777C93.5214 41.2269 97.4364 45.7478 101 50.4995C104.577 45.7311 108.494 41.2113 112.728 36.9777C124.451 25.2543 138.369 15.9548 153.686 9.61018C169.004 3.26553 185.421 -2.00526e-05 202 -5.51856e-06L202 50.5L202 202H151.5V69.7892C150.453 70.7253 149.432 71.6914 148.437 72.6866C141.403 79.7207 135.823 88.0713 132.016 97.2617C128.209 106.452 126.25 116.302 126.25 126.25V126.25H75.75ZM505 101C509.752 97.4364 514.273 93.5214 518.522 89.2722C542.199 65.5957 555.5 33.4836 555.5 7.62939e-06H505C505 20.0901 497.019 39.3574 482.813 53.5633C468.607 67.7692 449.34 75.75 429.25 75.75V126.25C439.198 126.25 449.048 128.209 458.238 132.016C467.429 135.823 475.779 141.403 482.813 148.437C489.847 155.471 495.427 163.821 499.234 173.012C503.041 182.202 505 192.052 505 202L555.5 202C555.5 185.421 552.234 169.004 545.89 153.686C539.545 138.369 530.246 124.451 518.522 112.728C514.289 108.494 509.769 104.577 505 101ZM316.522 36.9777C320.756 41.2114 324.673 45.7313 328.25 50.5C331.826 45.7313 335.744 41.2114 339.978 36.9777C351.701 25.2543 365.619 15.9548 380.936 9.61018C396.254 3.26553 412.671 -2.00526e-05 429.25 -5.51856e-06L429.25 50.5C419.302 50.5 409.452 52.4593 400.262 56.2661C391.071 60.0729 382.721 65.6526 375.687 72.6866C368.653 79.7207 363.073 88.0713 359.266 97.2617C355.459 106.452 353.5 116.302 353.5 126.25H303C303 116.302 301.041 106.452 297.234 97.2617C293.427 88.0713 287.847 79.7207 280.813 72.6866C273.779 65.6526 265.429 60.0729 256.238 56.2661C247.048 52.4593 237.198 50.5 227.25 50.5L227.25 -5.51856e-06C243.829 -2.00526e-05 260.246 3.26553 275.564 9.61018C290.881 15.9548 304.799 25.2543 316.522 36.9777ZM353.5 151.5H303V202H353.5V151.5ZM50.5 151.5H1.39773e-05V202H50.5V151.5Z" fill="#222222"/>
</svg>
