<svg width="50" height="50" viewBox="0 0 50 50" fill="none" xmlns="http://www.w3.org/2000/svg">
<path d="M-2.18557e-06 50C-2.39428e-06 43.4339 1.29329 36.9321 3.80602 30.8658C6.31876 24.7995 10.0017 19.2876 14.6447 14.6446C19.2876 10.0017 24.7996 6.31875 30.8658 3.80601C36.9321 1.29328 43.4339 -6.17756e-06 50 -2.18556e-06L50 20C46.0604 20 42.1593 20.776 38.5195 22.2836C34.8797 23.7912 31.5726 26.001 28.7868 28.7868C26.001 31.5725 23.7913 34.8797 22.2836 38.5195C20.776 42.1593 20 46.0603 20 50L-2.18557e-06 50Z" fill="#222222"/>
</svg>
